# xmcd
#
# Track frame offsets: 
#        150
#        22130
#        42955
#        59238
#        76123
#        91018
#        119408
#        141685
#        157978
#        172180
#        187593
#        200963
#        220600
#        238188
#        262950
#
# Disc length: 3944 seconds
#
# Revision: 1
# Processed by: cddbd v1.5.2PL0 Copyright (c) Steve Scherf et al.
# Submitted via: ExactAudioCopy v0.99pb2
#
DISCID=d90f660f
DTITLE=JoJo SwingBand - JoJo's On Parade
DYEAR=1988
DGENRE=Jazz
TTITLE0=Fine and Dandy
TTITLE1=Opp-pop-a-da
TTITLE2=My old man
TTITLE3=As long as I live
TTITLE4=My ideal
TTITLE5=Wholly cats
TTITLE6=Shine on your shoes
TTITLE7=Blue Lou
TTITLE8=Sweethearts on parade
TTITLE9=Up jumped you with love
TTITLE10=He's a different type of guy
TTITLE11=Esquire bounce
TTITLE12=Sweet Sue
TTITLE13='T ain't what you do
TTITLE14=Flying home
EXTD=YEAR: 1194
EXTT0=
EXTT1=
EXTT2=
EXTT3=
EXTT4=
EXTT5=
EXTT6=
EXTT7=
EXTT8=
EXTT9=
EXTT10=
EXTT11=
EXTT12=
EXTT13=
EXTT14=
PLAYORDER=
